:SAMPLES-PER-SECOND 30
:FULLY-SPECIFIED
:DEGREES
93
root  36.5666 22.0057 -0.883554 -60.5342 -88.6279 87.5351
RightUpLeg  -39.5628 -9.18099 -6.07706
RightLeg  115.577 2.40599 -3.80389
RightFoot  -31.006 3.73299 22.5038
RightToes  -1.33073e-015 0 -3.6325e-017
Spine  58.054 -0.873742 3.72741
Spine1  -1.46281 0.723831 1.90937
HEad  -41.7255 -4.87751 -5.53066
LeftShoulder1  9.54081 -21.0398 -32.7515
LeftArm  -10.8997 -71.3219 -32.1745
LeftForeArm  64.8431 -3.48726 -7.489
LeftHand  -0.244104 0.0205437 5.32207
RightShoulder  5.5739 14.4016 24.9823
RightArm  -7.72304 44.4734 35.5974
RightForeArm  22.0707 32.682 5.95648
RightHand  -30.1277 41.6445 -65.9942
LeftUpLeg  -60.9676 11.8868 0.342292
LeftLeg  124.114 -5.07046 6.42673
LeftFoot  -26.0081 -1.82098 -15.2834
LeftToes  -7.82198e-011 2.46994e-011 -7.94165e-012
94
root  36.0541 21.9658 -0.826064 -139.314 -89.1684 166.44
RightUpLeg  -38.3291 -8.06155 -5.29132
RightLeg  114.498 2.52802 -4.2431
RightFoot  -31.3146 3.83075 22.7066
RightToes  -1.33073e-015 0 -3.6325e-017
Spine  57.6409 -0.876798 4.1025
Spine1  -1.39501 1.28681 0.317619
HEad  -41.2704 -3.89112 -5.37565
LeftShoulder1  9.77692 -21.151 -33.5281
LeftArm  -10.5628 -70.347 -31.2513
LeftForeArm  64.6492 -2.71448 -7.82274
LeftHand  -0.244104 0.0205437 5.32207
RightShoulder  5.1064 13.9666 22.9869
RightArm  -12.2557 48.0432 35.2765
RightForeArm  23.3834 35.7083 6.66309
RightHand  -29.6407 41.3763 -65.4281
LeftUpLeg  -59.549 11.3718 2.14734
LeftLeg  124.308 -4.41562 5.50054
LeftFoot  -24.879 -1.60335 -14.6936
LeftToes  -7.82198e-011 2.46994e-011 -7.94165e-012
95
root  35.5515 21.8918 -0.767269 173.691 -87.6886 -146.829
RightUpLeg  -36.8378 -6.99916 -4.65014
RightLeg  113.671 2.7322 -4.83288
RightFoot  -31.4301 3.78908 22.3529
RightToes  -1.33073e-015 0 -3.6325e-017
Spine  57.5525 -0.911705 4.5836
Spine1  -1.33871 1.88283 -1.15101
HEad  -40.935 -3.13985 -5.18572
LeftShoulder1  10.0891 -21.2489 -34.6193
LeftArm  -9.94222 -69.2845 -30.1563
LeftForeArm  64.2231 -2.41284 -8.34328
LeftHand  -0.244104 0.0205437 5.32207
RightShoulder  4.58274 13.4097 20.7219
RightArm  -16.8642 52.7598 34.0916
RightForeArm  23.3948 35.622 6.64563
RightHand  -28.2448 40.5667 -63.7964
LeftUpLeg  -57.8346 10.5276 3.92801
LeftLeg  124.602 -3.69643 4.48043
LeftFoot  -23.3395 -1.29967 -13.6308
LeftToes  -7.82198e-011 2.46994e-011 -7.94165e-012
96
root  35.0543 21.7791 -0.68931 167.817 -85.8796 -141.374
RightUpLeg  -35.2907 -5.88082 -3.99659
RightLeg  112.971 2.98493 -5.53274
RightFoot  -31.4012 3.68691 21.8254
RightToes  -1.33073e-015 0 -3.6325e-017
Spine  57.5225 -1.05154 5.29751
Spine1  -1.20142 2.56742 -2.85162
HEad  -40.6883 -2.57958 -4.84486
LeftShoulder1  10.3141 -21.3061 -35.4174
LeftArm  -9.22877 -68.2316 -29.7205
LeftForeArm  64.1844 -2.04932 -8.69413
LeftHand  -0.244104 0.0205437 5.32207
RightShoulder  4.02724 12.7257 18.2735
RightArm  -21.2655 57.9798 32.455
RightForeArm  21.43 32.3959 5.92911
RightHand  -25.4771 38.7339 -60.5887
LeftUpLeg  -56.0296 9.60178 5.56456
LeftLeg  124.985 -3.07435 3.59477
LeftFoot  -21.5664 -0.952203 -12.0437
LeftToes  -7.82198e-011 2.46994e-011 -7.94165e-012
97
root  34.5594 21.64 -0.589119 164.167 -83.7588 -137.893
RightUpLeg  -34.0282 -4.57718 -3.18449
RightLeg  112.251 3.18072 -6.15648
RightFoot  -31.3407 3.65527 21.7156
RightToes  -1.33073e-015 0 -3.6325e-017
Spine  57.2352 -1.27547 6.34065
Spine1  -1.05048 3.45647 -5.16329
HEad  -40.5366 -2.24759 -4.35801
LeftShoulder1  10.3826 -21.4336 -35.4762
LeftArm  -8.26901 -67.1274 -30.0905
LeftForeArm  64.3484 -1.52777 -8.92984
LeftHand  -0.244104 0.0205437 5.32207
RightShoulder  3.5035 12.0107 15.8566
RightArm  -24.8797 62.9524 30.4086
RightForeArm  18.1173 26.584 4.7528
RightHand  -21.7643 35.8526 -56.2083
LeftUpLeg  -54.4292 8.95982 7.00399
LeftLeg  125.383 -2.60894 2.93324
LeftFoot  -20.0278 -0.689432 -10.6423
LeftToes  -7.82198e-011 2.46994e-011 -7.94165e-012
98
root  34.0488 21.5134 -0.487571 162.804 -81.6399 -136.325
RightUpLeg  -33.0481 -3.28029 -2.36488
RightLeg  111.328 3.37379 -6.88395
RightFoot  -31.2595 3.66465 21.8524
RightToes  -1.33073e-015 0 -3.6325e-017
Spine  56.7447 -1.43346 7.50956
Spine1  -0.99745 4.46313 -7.58535
HEad  -40.523 -2.23491 -3.93001
LeftShoulder1  10.461 -21.6257 -35.4656
LeftArm  -6.7749 -66.0098 -30.6829
LeftForeArm  64.2782 -1.19983 -9.3824
LeftHand  -0.244104 0.0205437 5.32207
RightShoulder  3.13765 11.4662 14.0859
RightArm  -28.5525 67.2955 27.0642
RightForeArm  15.8611 19.2055 3.71149
RightHand  -17.9046 32.366 -51.327
LeftUpLeg  -53.1079 8.63313 8.01629
LeftLeg  125.587 -2.41785 2.66247
LeftFoot  -18.9364 -0.548424 -9.95656
LeftToes  -7.82198e-011 2.46994e-011 -7.94165e-012
99
root  33.5054 21.4251 -0.402646 162.259 -79.972 -135.335
RightUpLeg  -32.1278 -2.37543 -1.66824
RightLeg  110.094 3.66146 -8.02167
RightFoot  -31.0878 3.58765 21.6062
RightToes  -1.33073e-015 0 -3.6325e-017
Spine  56.2573 -1.5104 8.62152
Spine1  -1.00086 5.37148 -9.39586
HEad  -40.6583 -2.4816 -3.70285
LeftShoulder1  10.7046 -21.7978 -36.1265
LeftArm  -4.98489 -65.0195 -31.0491
LeftForeArm  64.0007 -1.11909 -10.0544
LeftHand  -0.244104 0.0205437 5.32207
RightShoulder  2.99485 11.2548 13.3494
RightArm  -34.1706 70.8163 21.8619
RightForeArm  16.7782 11.4647 3.40431
RightHand  -14.3348 28.5892 -46.3657
LeftUpLeg  -51.9229 8.42094 8.43027
LeftLeg  125.418 -2.66375 3.00206
LeftFoot  -18.1985 -0.46439 -9.54934
LeftToes  -7.82198e-011 2.46994e-011 -7.94165e-012
100
root  32.9378 21.3602 -0.328065 161.331 -78.7442 -133.76
RightUpLeg  -31.2559 -1.95653 -0.988476
RightLeg  108.638 3.89705 -9.26079
RightFoot  -30.9216 3.45291 21.0273
RightToes  -1.33073e-015 0 -3.6325e-017
Spine  55.6969 -1.66338 9.78844
Spine1  -0.880645 6.12407 -10.7322
HEad  -40.9232 -2.75172 -3.60728
LeftShoulder1  11.0211 -21.924 -37.1306
LeftArm  -3.4765 -64.1674 -31.3101
LeftForeArm  63.7862 -0.995945 -10.6106
LeftHand  -0.244104 0.0205437 5.32207
RightShoulder  2.99671 11.3783 13.1756
RightArm  -37.8628 73.189 17.0006
RightForeArm  17.3377 4.7674 3.00135
RightHand  -11.6918 25.2289 -42.52
LeftUpLeg  -50.7192 8.35054 8.46277
LeftLeg  124.864 -3.27996 3.88622
LeftFoot  -17.9012 -0.403445 -8.89975
LeftToes  -7.82198e-011 2.46994e-011 -7.94165e-012
